<svg width="322" height="115" viewBox="0 0 322 115" fill="none" xmlns="http://www.w3.org/2000/svg">
<g clip-path="url(#clip0_1424_746)">
<path d="M48.2193 96.6017C74.8501 96.6017 96.4386 74.9767 96.4386 48.3009C96.4386 21.625 74.8501 0 48.2193 0C21.5885 0 0 21.625 0 48.3009C0 74.9767 21.5885 96.6017 48.2193 96.6017Z" fill="#C41230"/>
<path d="M236.012 39.4068C236.012 41.1657 234.582 42.5985 232.826 42.5985C231.07 42.5985 229.64 41.1657 229.64 39.4068C229.64 37.6478 231.07 36.2151 232.826 36.2151C234.582 36.2151 236.012 37.6478 236.012 39.4068Z" fill="white"/>
<path d="M110.486 102.786H111.69V107.283H111.733C111.987 106.928 112.228 106.588 112.469 106.29L115.315 102.786H116.802L113.432 106.744L117.057 112.106H115.641L112.596 107.524L111.704 108.546V112.106H110.5V102.786H110.486Z" fill="#C41230"/>
<path d="M118.204 107.226C118.204 106.517 118.204 105.964 118.147 105.411H119.224L119.295 106.517H119.323C119.649 105.893 120.427 105.269 121.532 105.269C122.453 105.269 123.897 105.822 123.897 108.12V112.106H122.679V108.248C122.679 107.17 122.283 106.276 121.135 106.276C120.342 106.276 119.734 106.843 119.507 107.524C119.45 107.68 119.422 107.879 119.422 108.092V112.12H118.204V107.241V107.226Z" fill="#C41230"/>
<path d="M133.484 108.702C133.484 111.184 131.757 112.262 130.157 112.262C128.358 112.262 126.956 110.929 126.956 108.815C126.956 106.588 128.429 105.269 130.27 105.269C132.111 105.269 133.484 106.659 133.484 108.702ZM128.202 108.773C128.202 110.234 129.024 111.34 130.213 111.34C131.403 111.34 132.238 110.248 132.238 108.744C132.238 107.609 131.672 106.191 130.241 106.191C128.811 106.191 128.202 107.524 128.202 108.773Z" fill="#C41230"/>
<path d="M136.09 105.411L136.982 108.815C137.166 109.567 137.336 110.248 137.464 110.943H137.506C137.662 110.262 137.874 109.553 138.101 108.829L139.191 105.411H140.211L141.245 108.758C141.5 109.567 141.684 110.262 141.839 110.943H141.882C141.995 110.262 142.165 109.553 142.392 108.773L143.341 105.411H144.544L142.392 112.106H141.287L140.268 108.914C140.027 108.163 139.843 107.51 139.673 106.716H139.644C139.474 107.524 139.276 108.205 139.035 108.929L137.959 112.106H136.855L134.844 105.411H136.09Z" fill="#C41230"/>
<path d="M146.556 102.29H147.774V112.106H146.556V102.29Z" fill="#C41230"/>
<path d="M150.634 108.986C150.663 110.631 151.696 111.312 152.929 111.312C153.792 111.312 154.33 111.156 154.784 110.972L155.01 111.837C154.585 112.035 153.835 112.262 152.773 112.262C150.719 112.262 149.487 110.886 149.487 108.872C149.487 106.858 150.677 105.269 152.617 105.269C154.812 105.269 155.378 107.184 155.378 108.404C155.378 108.659 155.378 108.83 155.336 108.971H150.634V108.986ZM154.203 108.12C154.203 107.354 153.891 106.163 152.518 106.163C151.272 106.163 150.748 107.283 150.649 108.12H154.203Z" fill="#C41230"/>
<path d="M162.771 102.29V110.376C162.771 110.971 162.799 111.652 162.827 112.106H161.751L161.694 110.943H161.652C161.298 111.695 160.491 112.262 159.4 112.262C157.786 112.262 156.525 110.886 156.525 108.858C156.525 106.631 157.899 105.269 159.528 105.269C160.561 105.269 161.241 105.751 161.538 106.276H161.567V102.276H162.771V102.29ZM161.567 108.134C161.567 107.978 161.567 107.78 161.51 107.624C161.326 106.858 160.675 106.234 159.754 106.234C158.494 106.234 157.757 107.34 157.757 108.801C157.757 110.163 158.437 111.284 159.726 111.284C160.547 111.284 161.284 110.73 161.51 109.837C161.553 109.666 161.567 109.51 161.567 109.312V108.149V108.134Z" fill="#C41230"/>
<path d="M170.645 111.128C170.645 112.674 170.333 113.61 169.696 114.192C169.03 114.787 168.096 115 167.246 115C166.396 115 165.561 114.802 165.023 114.447L165.32 113.511C165.759 113.794 166.453 114.05 167.274 114.05C168.52 114.05 169.427 113.397 169.427 111.695V110.957H169.398C169.044 111.581 168.308 112.078 167.274 112.078C165.617 112.078 164.428 110.674 164.428 108.815C164.428 106.546 165.901 105.269 167.458 105.269C168.619 105.269 169.243 105.865 169.54 106.418H169.568L169.611 105.411H170.687C170.645 105.879 170.63 106.432 170.63 107.241V111.128H170.645ZM169.427 108.064C169.427 107.851 169.427 107.681 169.356 107.525C169.129 106.801 168.549 106.219 167.657 106.219C166.495 106.219 165.674 107.198 165.674 108.744C165.674 110.064 166.354 111.156 167.642 111.156C168.407 111.156 169.073 110.688 169.328 109.908C169.398 109.695 169.427 109.468 169.427 109.255V108.049V108.064Z" fill="#C41230"/>
<path d="M173.462 108.986C173.491 110.631 174.525 111.312 175.757 111.312C176.62 111.312 177.173 111.156 177.612 110.972L177.838 111.837C177.414 112.035 176.663 112.262 175.601 112.262C173.547 112.262 172.315 110.886 172.315 108.872C172.315 106.858 173.505 105.269 175.445 105.269C177.64 105.269 178.207 107.184 178.207 108.404C178.207 108.659 178.207 108.83 178.164 108.971H173.462V108.986ZM177.031 108.12C177.031 107.354 176.72 106.163 175.346 106.163C174.1 106.163 173.576 107.283 173.477 108.12H177.031Z" fill="#C41230"/>
<path d="M179.396 111.383C179.396 110.886 179.735 110.518 180.217 110.518C180.698 110.518 181.038 110.872 181.038 111.383C181.038 111.894 180.713 112.248 180.203 112.248C179.735 112.248 179.396 111.879 179.396 111.383Z" fill="#C41230"/>
<path d="M193.118 102.787V112.106H191.9V102.787H193.118Z" fill="#C41230"/>
<path d="M195.455 107.227C195.455 106.517 195.455 105.964 195.398 105.411H196.475L196.546 106.517H196.574C196.9 105.893 197.678 105.269 198.783 105.269C199.703 105.269 201.148 105.822 201.148 108.12V112.106H199.93V108.248C199.93 107.17 199.534 106.276 198.386 106.276C197.593 106.276 196.985 106.844 196.758 107.525C196.701 107.681 196.673 107.879 196.673 108.092V112.121H195.455V107.241V107.227Z" fill="#C41230"/>
<path d="M203.243 107.227C203.243 106.517 203.243 105.964 203.187 105.411H204.263L204.334 106.517H204.362C204.688 105.893 205.466 105.269 206.571 105.269C207.492 105.269 208.936 105.822 208.936 108.12V112.106H207.718V108.248C207.718 107.17 207.322 106.276 206.175 106.276C205.382 106.276 204.773 106.844 204.546 107.525C204.489 107.681 204.461 107.879 204.461 108.092V112.121H203.243V107.241V107.227Z" fill="#C41230"/>
<path d="M216.98 108.702C216.98 111.184 215.252 112.262 213.652 112.262C211.853 112.262 210.451 110.929 210.451 108.815C210.451 106.588 211.924 105.269 213.765 105.269C215.606 105.269 216.98 106.659 216.98 108.702ZM211.697 108.773C211.697 110.234 212.519 111.34 213.708 111.34C214.898 111.34 215.733 110.248 215.733 108.744C215.733 107.609 215.167 106.191 213.737 106.191C212.306 106.191 211.697 107.524 211.697 108.773Z" fill="#C41230"/>
<path d="M219.571 105.411L220.888 109.156C221.115 109.78 221.285 110.333 221.427 110.886H221.469C221.625 110.333 221.809 109.78 222.035 109.156L223.338 105.411H224.613L221.993 112.106H220.832L218.297 105.411H219.6H219.571Z" fill="#C41230"/>
<path d="M230.631 110.503C230.631 111.085 230.66 111.652 230.73 112.106H229.64L229.541 111.269H229.498C229.13 111.794 228.408 112.262 227.459 112.262C226.1 112.262 225.42 111.312 225.42 110.333C225.42 108.716 226.85 107.836 229.442 107.851V107.709C229.442 107.17 229.286 106.162 227.926 106.177C227.289 106.177 226.638 106.361 226.17 106.673L225.887 105.85C226.44 105.51 227.247 105.269 228.096 105.269C230.136 105.269 230.631 106.659 230.631 107.992V110.503ZM229.456 108.687C228.125 108.659 226.624 108.9 226.624 110.191C226.624 111 227.148 111.354 227.757 111.354C228.635 111.354 229.201 110.801 229.399 110.234C229.442 110.092 229.456 109.964 229.456 109.851V108.687Z" fill="#C41230"/>
<path d="M234.13 103.808V105.411H235.871V106.333H234.13V109.936C234.13 110.759 234.37 111.241 235.036 111.241C235.362 111.241 235.56 111.213 235.744 111.156L235.801 112.078C235.56 112.163 235.192 112.248 234.724 112.248C234.158 112.248 233.705 112.049 233.407 111.737C233.082 111.369 232.94 110.773 232.94 109.978V106.333H231.906V105.411H232.94V104.162L234.13 103.808Z" fill="#C41230"/>
<path d="M238.731 103.524C238.731 103.935 238.434 104.276 237.952 104.276C237.513 104.276 237.216 103.95 237.216 103.524C237.216 103.099 237.513 102.758 237.981 102.758C238.448 102.758 238.731 103.084 238.731 103.524ZM237.372 112.106V105.411H238.589V112.106H237.372Z" fill="#C41230"/>
<path d="M246.789 108.702C246.789 111.184 245.061 112.262 243.461 112.262C241.663 112.262 240.261 110.929 240.261 108.815C240.261 106.588 241.734 105.269 243.574 105.269C245.415 105.269 246.789 106.659 246.789 108.702ZM241.507 108.773C241.507 110.234 242.328 111.34 243.518 111.34C244.707 111.34 245.543 110.248 245.543 108.744C245.543 107.609 244.976 106.191 243.546 106.191C242.116 106.191 241.507 107.524 241.507 108.773Z" fill="#C41230"/>
<path d="M248.46 107.226C248.46 106.517 248.46 105.964 248.403 105.411H249.48L249.55 106.517H249.579C249.904 105.893 250.683 105.269 251.788 105.269C252.708 105.269 254.153 105.822 254.153 108.12V112.106H252.935V108.248C252.935 107.17 252.538 106.276 251.391 106.276C250.598 106.276 249.989 106.843 249.763 107.524C249.706 107.68 249.678 107.879 249.678 108.092V112.12H248.46V107.241V107.226Z" fill="#C41230"/>
<path d="M255.98 111.383C255.98 110.886 256.32 110.517 256.802 110.517C257.283 110.517 257.623 110.872 257.623 111.383C257.623 111.893 257.297 112.248 256.788 112.248C256.32 112.248 255.98 111.879 255.98 111.383Z" fill="#C41230"/>
<path d="M266.827 102.914C267.436 102.801 268.314 102.716 269.135 102.716C270.424 102.716 271.26 102.971 271.826 103.482C272.279 103.893 272.562 104.531 272.562 105.269C272.562 106.489 271.784 107.297 270.821 107.638V107.68C271.529 107.936 271.954 108.588 272.18 109.567C272.478 110.872 272.704 111.766 272.902 112.12H271.656C271.5 111.851 271.302 111.057 271.047 109.893C270.764 108.602 270.254 108.12 269.164 108.078H268.031V112.12H266.827V102.928V102.914ZM268.031 107.156H269.263C270.552 107.156 271.359 106.446 271.359 105.382C271.359 104.177 270.495 103.652 269.22 103.652C268.64 103.652 268.243 103.694 268.031 103.751V107.156Z" fill="#C41230"/>
<path d="M275.692 108.986C275.72 110.631 276.754 111.312 277.986 111.312C278.85 111.312 279.388 111.156 279.841 110.972L280.068 111.837C279.643 112.035 278.892 112.262 277.83 112.262C275.777 112.262 274.545 110.886 274.545 108.872C274.545 106.858 275.734 105.269 277.675 105.269C279.87 105.269 280.436 107.184 280.436 108.404C280.436 108.659 280.436 108.83 280.394 108.971H275.692V108.986ZM279.261 108.12C279.261 107.354 278.949 106.163 277.575 106.163C276.329 106.163 275.805 107.283 275.706 108.12H279.261Z" fill="#C41230"/>
<path d="M281.909 110.872C282.277 111.099 282.915 111.34 283.524 111.34C284.387 111.34 284.812 110.915 284.812 110.347C284.812 109.78 284.472 109.468 283.58 109.127C282.362 108.688 281.796 108.035 281.796 107.227C281.796 106.149 282.674 105.269 284.104 105.269C284.784 105.269 285.379 105.453 285.733 105.68L285.45 106.56C285.18 106.39 284.699 106.163 284.076 106.163C283.354 106.163 282.971 106.574 282.971 107.071C282.971 107.624 283.354 107.879 284.232 108.22C285.379 108.645 285.988 109.227 285.988 110.22C285.988 111.411 285.067 112.234 283.509 112.234C282.773 112.234 282.107 112.035 281.626 111.766L281.923 110.858L281.909 110.872Z" fill="#C41230"/>
<path d="M293.266 110.262C293.266 110.972 293.266 111.582 293.323 112.106H292.246L292.176 111.014H292.147C291.85 111.553 291.128 112.262 289.938 112.262C288.89 112.262 287.63 111.667 287.63 109.326V105.411H288.848V109.099C288.848 110.376 289.244 111.241 290.335 111.241C291.156 111.241 291.708 110.674 291.935 110.12C292.006 109.95 292.048 109.737 292.048 109.496V105.397H293.266V110.248V110.262Z" fill="#C41230"/>
<path d="M295.419 102.29H296.637V112.106H295.419V102.29Z" fill="#C41230"/>
<path d="M300.276 103.808V105.411H302.018V106.333H300.276V109.936C300.276 110.759 300.517 111.241 301.182 111.241C301.508 111.241 301.706 111.213 301.89 111.156L301.947 112.078C301.706 112.163 301.338 112.248 300.871 112.248C300.304 112.248 299.851 112.049 299.554 111.737C299.228 111.369 299.087 110.773 299.087 109.978V106.333H298.053V105.411H299.087V104.162L300.276 103.808Z" fill="#C41230"/>
<path d="M303.363 110.872C303.731 111.099 304.369 111.34 304.978 111.34C305.842 111.34 306.266 110.915 306.266 110.347C306.266 109.78 305.926 109.468 305.034 109.127C303.816 108.688 303.25 108.035 303.25 107.227C303.25 106.149 304.128 105.269 305.558 105.269C306.238 105.269 306.833 105.453 307.187 105.68L306.904 106.56C306.635 106.39 306.153 106.163 305.53 106.163C304.808 106.163 304.425 106.574 304.425 107.071C304.425 107.624 304.808 107.879 305.686 108.22C306.833 108.645 307.442 109.227 307.442 110.22C307.442 111.411 306.521 112.234 304.964 112.234C304.227 112.234 303.547 112.035 303.08 111.766L303.377 110.858L303.363 110.872Z" fill="#C41230"/>
<path d="M308.688 111.383C308.688 110.886 309.027 110.518 309.509 110.518C309.99 110.518 310.33 110.872 310.33 111.383C310.33 111.894 310.005 112.248 309.495 112.248C309.027 112.248 308.688 111.879 308.688 111.383Z" fill="#C41230"/>
<path d="M131.36 26.0583H116.632V34.9241H130.935V40.1301H116.632V52.4287H131.36V57.6347H111.081V20.8523H131.36V26.0583Z" fill="#231F20"/>
<path d="M140.084 57.6631V18.3416L166.863 46.4284V20.8523H172.414V59.9186L145.635 31.8885V57.6631H140.084Z" fill="#231F20"/>
<path d="M208.243 22.7957V29.3635C205.042 26.6825 201.714 25.3349 198.287 25.3349C194.506 25.3349 191.334 26.6967 188.742 29.4203C186.137 32.1296 184.834 35.4348 184.834 39.3499C184.834 43.2651 186.137 46.4851 188.742 49.1378C191.348 51.7904 194.534 53.1239 198.316 53.1239C200.27 53.1239 201.927 52.8118 203.286 52.1734C204.051 51.8614 204.844 51.4216 205.651 50.8826C206.472 50.3435 207.336 49.691 208.228 48.925V55.6346C205.056 57.4362 201.728 58.3298 198.231 58.3298C192.977 58.3298 188.502 56.4999 184.777 52.826C181.081 49.1236 179.24 44.6552 179.24 39.4209C179.24 34.7256 180.784 30.5409 183.871 26.8811C187.68 22.3844 192.609 20.1289 198.655 20.1289C201.955 20.1289 205.141 21.0226 208.228 22.8099L208.243 22.7957Z" fill="#231F20"/>
<path d="M213.651 39.0804C213.651 33.9028 215.549 29.4486 219.344 25.732C223.125 22.0155 227.657 20.1572 232.953 20.1572C238.25 20.1572 242.668 22.0297 246.421 25.7888C250.173 29.5337 252.057 34.0446 252.057 39.3073C252.057 44.5701 250.173 49.0952 246.392 52.7834C242.597 56.4857 238.023 58.344 232.67 58.344C227.926 58.344 223.663 56.6985 219.897 53.4075C215.733 49.7619 213.666 44.9956 213.666 39.0946L213.651 39.0804ZM219.245 39.1371C219.245 43.2083 220.605 46.556 223.338 49.1803C226.057 51.8046 229.186 53.1096 232.741 53.1096C236.593 53.1096 239.85 51.7762 242.498 49.1094C245.146 46.4142 246.477 43.1232 246.477 39.2364C246.477 35.3497 245.16 32.0161 242.555 29.3635C239.949 26.6966 236.734 25.3632 232.897 25.3632C229.059 25.3632 225.844 26.6966 223.21 29.3635C220.576 32.0019 219.259 35.2645 219.259 39.1371H219.245Z" fill="#C41230"/>
<path d="M271.982 41.9742L283.34 57.6631H276.571L266.091 42.5983H265.1V57.6631H259.549V20.8523H266.035C270.878 20.8523 274.39 21.7602 276.542 23.5901C278.922 25.6185 280.111 28.3137 280.111 31.6473C280.111 34.2574 279.361 36.4986 277.874 38.3711C276.387 40.2436 274.418 41.4493 271.982 41.9742ZM265.1 37.747H266.856C272.096 37.747 274.716 35.7326 274.716 31.7182C274.716 27.9449 272.167 26.0725 267.068 26.0725H265.1V37.747Z" fill="#231F20"/>
<path d="M309.651 26.0583H294.923V34.9241H309.226V40.1301H294.923V52.4287H309.651V57.6347H289.372V20.8523H309.651V26.0583Z" fill="#231F20"/>
<path d="M111.053 75.2387V62.3159H113.758C115.061 62.3159 116.08 62.4436 116.831 62.6989C117.638 62.9543 118.375 63.3798 119.026 63.9756C120.357 65.1955 121.023 66.7985 121.023 68.7702C121.023 70.742 120.329 72.3733 118.941 73.5932C118.247 74.2032 117.511 74.6287 116.746 74.8699C116.038 75.111 115.018 75.2245 113.716 75.2245H111.039L111.053 75.2387ZM113.007 73.4088H113.885C114.763 73.4088 115.486 73.3237 116.066 73.1393C116.647 72.9407 117.171 72.6286 117.638 72.2031C118.601 71.3236 119.069 70.1887 119.069 68.7702C119.069 67.3517 118.601 66.2027 117.652 65.3232C116.803 64.543 115.542 64.1458 113.885 64.1458H113.007V73.4088Z" fill="#231F20"/>
<path d="M125.597 62.3159V75.2387H123.643V62.3159H125.597Z" fill="#231F20"/>
<path d="M136.175 64.2168L134.589 65.153C134.292 64.6423 134.009 64.3019 133.74 64.1458C133.456 63.9614 133.102 63.8763 132.663 63.8763C132.125 63.8763 131.672 64.0324 131.318 64.3444C130.964 64.6423 130.78 65.0253 130.78 65.4792C130.78 66.1176 131.247 66.6141 132.182 67.0113L133.471 67.5361C134.519 67.9617 135.283 68.4723 135.765 69.0965C136.246 69.7065 136.487 70.4583 136.487 71.3519C136.487 72.5435 136.09 73.5223 135.297 74.3025C134.504 75.0827 133.513 75.4799 132.338 75.4799C131.219 75.4799 130.299 75.1536 129.562 74.4727C128.84 73.806 128.401 72.8698 128.217 71.664L130.185 71.2243C130.27 71.9903 130.426 72.501 130.653 72.7988C131.049 73.3521 131.644 73.6358 132.409 73.6358C133.017 73.6358 133.513 73.4372 133.924 73.0258C134.32 72.6144 134.519 72.1038 134.519 71.4796C134.519 71.2243 134.49 70.9973 134.419 70.7845C134.349 70.5718 134.235 70.3874 134.094 70.2029C133.952 70.0327 133.754 69.8625 133.527 69.7065C133.287 69.5504 133.017 69.4086 132.692 69.2667L131.446 68.7419C129.675 67.99 128.797 66.8978 128.797 65.4651C128.797 64.5005 129.166 63.6777 129.916 63.0252C130.653 62.3727 131.587 62.0322 132.692 62.0322C134.179 62.0322 135.34 62.7557 136.175 64.2026V64.2168Z" fill="#231F20"/>
<path d="M148.552 62.9968V65.2948C147.433 64.3444 146.258 63.8763 145.054 63.8763C143.723 63.8763 142.619 64.3586 141.698 65.309C140.792 66.2594 140.324 67.4226 140.324 68.7986C140.324 70.1746 140.778 71.3094 141.698 72.2314C142.619 73.1677 143.737 73.6358 145.054 73.6358C145.734 73.6358 146.329 73.5223 146.796 73.2953C147.065 73.1818 147.334 73.0258 147.632 72.8414C147.915 72.657 148.226 72.43 148.538 72.1605V74.5153C147.419 75.1536 146.258 75.4657 145.026 75.4657C143.185 75.4657 141.613 74.8132 140.31 73.5223C139.007 72.2173 138.37 70.6569 138.37 68.8128C138.37 67.1673 138.908 65.692 139.999 64.4012C141.33 62.8124 143.072 62.0322 145.182 62.0322C146.343 62.0322 147.462 62.3443 148.538 62.9685L148.552 62.9968Z" fill="#231F20"/>
<path d="M150.464 68.7134C150.464 66.8977 151.129 65.3373 152.461 64.0181C153.792 62.7131 155.378 62.0605 157.233 62.0605C159.088 62.0605 160.646 62.7131 161.963 64.0323C163.28 65.3515 163.945 66.9403 163.945 68.7844C163.945 70.6285 163.28 72.2172 161.963 73.5081C160.632 74.8131 159.017 75.4656 157.148 75.4656C155.477 75.4656 153.99 74.884 152.659 73.735C151.2 72.4584 150.464 70.7845 150.464 68.7134ZM152.418 68.7418C152.418 70.1745 152.9 71.3519 153.863 72.2598C154.811 73.1818 155.916 73.6357 157.162 73.6357C158.522 73.6357 159.655 73.1676 160.589 72.2314C161.524 71.281 161.991 70.132 161.991 68.7702C161.991 67.4084 161.524 66.231 160.618 65.309C159.697 64.3727 158.564 63.9046 157.219 63.9046C155.873 63.9046 154.741 64.3727 153.82 65.309C152.9 66.231 152.432 67.38 152.432 68.7418H152.418Z" fill="#231F20"/>
<path d="M166.65 62.3159L170.219 71.281L173.83 62.3159H175.968L170.176 76.2175L164.512 62.3159H166.636H166.65Z" fill="#231F20"/>
<path d="M184.876 64.1458H179.707V67.2666H184.734V69.0965H179.707V73.4088H184.876V75.2387H177.753V62.3159H184.876V64.1458Z" fill="#231F20"/>
<path d="M191.971 69.7348L195.964 75.2387H193.585L189.903 69.9476H189.549V75.2387H187.595V62.3159H189.875C191.574 62.3159 192.806 62.6422 193.571 63.2805C194.406 63.9898 194.817 64.9402 194.817 66.1176C194.817 67.0254 194.562 67.8198 194.038 68.4723C193.514 69.1248 192.82 69.5504 191.971 69.7348ZM189.549 68.2595H190.172C192.013 68.2595 192.934 67.5503 192.934 66.1459C192.934 64.8267 192.041 64.16 190.243 64.16H189.549V68.2595Z" fill="#231F20"/>
<path d="M200.113 69.6497L195.907 62.3018H198.145L201.104 67.4652L204.064 62.3018H206.302L202.067 69.6497V75.2387H200.113V69.6497Z" fill="#231F20"/>
<path d="M220.718 64.2168L219.132 65.153C218.835 64.6423 218.552 64.3019 218.283 64.1458C217.999 63.9614 217.645 63.8763 217.206 63.8763C216.668 63.8763 216.215 64.0324 215.861 64.3444C215.507 64.6423 215.323 65.0253 215.323 65.4792C215.323 66.1176 215.79 66.6141 216.725 67.0113L218.014 67.5361C219.062 67.9617 219.826 68.4723 220.308 69.0965C220.789 69.7065 221.03 70.4583 221.03 71.3519C221.03 72.5435 220.633 73.5223 219.84 74.3025C219.047 75.0827 218.056 75.4799 216.881 75.4799C215.762 75.4799 214.841 75.1536 214.105 74.4727C213.383 73.806 212.944 72.8698 212.76 71.664L214.728 71.2243C214.813 71.9903 214.969 72.501 215.196 72.7988C215.606 73.3521 216.187 73.6358 216.952 73.6358C217.56 73.6358 218.07 73.4372 218.467 73.0258C218.863 72.6144 219.076 72.1038 219.076 71.4796C219.076 71.2243 219.033 70.9973 218.977 70.7845C218.906 70.5718 218.807 70.3874 218.651 70.2029C218.509 70.0327 218.311 69.8625 218.084 69.7065C217.858 69.5504 217.575 69.4086 217.249 69.2667L216.003 68.7419C214.233 67.99 213.355 66.8978 213.355 65.4651C213.355 64.5005 213.723 63.6777 214.473 63.0252C215.21 62.3727 216.144 62.0322 217.249 62.0322C218.736 62.0322 219.897 62.7557 220.733 64.2026L220.718 64.2168Z" fill="#231F20"/>
<path d="M222.913 68.7134C222.913 66.8977 223.579 65.3373 224.91 64.0181C226.227 62.7131 227.827 62.0605 229.682 62.0605C231.537 62.0605 233.095 62.7131 234.412 64.0323C235.729 65.3515 236.395 66.9403 236.395 68.7844C236.395 70.6285 235.729 72.2172 234.412 73.5081C233.081 74.8131 231.481 75.4656 229.597 75.4656C227.926 75.4656 226.439 74.884 225.108 73.735C223.649 72.4584 222.913 70.7845 222.913 68.7134ZM224.882 68.7418C224.882 70.1745 225.363 71.3519 226.312 72.2598C227.261 73.1818 228.365 73.6357 229.611 73.6357C230.971 73.6357 232.104 73.1676 233.038 72.2314C233.973 71.281 234.44 70.132 234.44 68.7702C234.44 67.4084 233.987 66.231 233.067 65.309C232.16 64.3727 231.028 63.9046 229.668 63.9046C228.309 63.9046 227.19 64.3727 226.269 65.309C225.349 66.231 224.882 67.38 224.882 68.7418Z" fill="#231F20"/>
<path d="M240.984 62.3159V73.4088H244.779V75.2387H239.029V62.3159H240.984Z" fill="#231F20"/>
<path d="M248.347 62.3159V70.1036C248.347 71.2101 248.531 72.0328 248.885 72.5435C249.423 73.2811 250.188 73.6641 251.165 73.6641C252.142 73.6641 252.907 73.2953 253.459 72.5435C253.827 72.047 253.997 71.2385 253.997 70.1036V62.3159H255.951V70.6427C255.951 72.0045 255.527 73.1251 254.677 74.0046C253.728 74.9834 252.553 75.4798 251.165 75.4798C249.777 75.4798 248.616 74.9834 247.667 74.0046C246.817 73.1251 246.393 72.0045 246.393 70.6427V62.3159H248.347Z" fill="#231F20"/>
<path d="M262.778 64.1458V75.2387H260.823V64.1458H257.85V62.3159H265.723V64.1458H262.764H262.778Z" fill="#231F20"/>
<path d="M269.603 62.3159V75.2387H267.648V62.3159H269.603Z" fill="#231F20"/>
<path d="M272.223 68.7134C272.223 66.8977 272.888 65.3373 274.219 64.0181C275.551 62.7131 277.137 62.0605 278.992 62.0605C280.847 62.0605 282.405 62.7131 283.722 64.0323C285.039 65.3515 285.704 66.9403 285.704 68.7844C285.704 70.6285 285.039 72.2172 283.722 73.5081C282.39 74.8131 280.79 75.4656 278.907 75.4656C277.236 75.4656 275.749 74.884 274.418 73.735C272.959 72.4584 272.223 70.7845 272.223 68.7134ZM274.177 68.7418C274.177 70.1745 274.658 71.3519 275.621 72.2598C276.57 73.1818 277.675 73.6357 278.921 73.6357C280.28 73.6357 281.413 73.1676 282.348 72.2314C283.283 71.281 283.75 70.132 283.75 68.7702C283.75 67.4084 283.283 66.231 282.376 65.309C281.456 64.3727 280.337 63.9046 278.978 63.9046C277.618 63.9046 276.499 64.3727 275.579 65.309C274.658 66.231 274.191 67.38 274.191 68.7418H274.177Z" fill="#231F20"/>
<path d="M288.339 75.2386V61.4221L297.742 71.2951V62.3158H299.696V76.0329L290.293 66.1884V75.2386H288.339Z" fill="#231F20"/>
<path d="M310.26 64.2168L308.674 65.153C308.377 64.6423 308.094 64.3019 307.825 64.1458C307.541 63.9614 307.187 63.8763 306.748 63.8763C306.21 63.8763 305.757 64.0324 305.403 64.3444C305.049 64.6423 304.865 65.0253 304.865 65.4792C304.865 66.1176 305.332 66.6141 306.267 67.0113L307.556 67.5361C308.604 67.9617 309.368 68.4723 309.85 69.0965C310.331 69.7065 310.572 70.4583 310.572 71.3519C310.572 72.5435 310.175 73.5223 309.382 74.3025C308.589 75.0827 307.598 75.4799 306.423 75.4799C305.304 75.4799 304.369 75.1536 303.647 74.4727C302.925 73.806 302.486 72.8698 302.302 71.664L304.27 71.2243C304.355 71.9903 304.511 72.501 304.738 72.7988C305.134 73.3521 305.729 73.6358 306.493 73.6358C307.102 73.6358 307.612 73.4372 308.009 73.0258C308.405 72.6144 308.618 72.1038 308.618 71.4796C308.618 71.2243 308.575 70.9973 308.519 70.7845C308.448 70.5718 308.334 70.3874 308.193 70.2029C308.051 70.0327 307.853 69.8625 307.626 69.7065C307.386 69.5504 307.117 69.4086 306.791 69.2667L305.545 68.7419C303.775 67.99 302.897 66.8978 302.897 65.4651C302.897 64.5005 303.265 63.6777 304.015 63.0252C304.752 62.3727 305.686 62.0322 306.791 62.0322C308.278 62.0322 309.439 62.7557 310.275 64.2026L310.26 64.2168Z" fill="#231F20"/>
<path d="M48.2188 48.3009L65.6513 9.50415C74.2048 13.3625 80.4357 19.0225 85.0948 27.179L48.2188 48.3151V48.3009Z" fill="#CF4D4B"/>
<path d="M48.2188 48.3008L30.7863 87.1117C22.2328 83.2533 16.0018 77.5934 11.3428 69.4368L48.2188 48.3008Z" fill="#CF4D4B"/>
<path d="M55.4836 48.3009C55.4836 52.3154 52.2407 55.5638 48.233 55.5638C44.2254 55.5638 40.9824 52.3154 40.9824 48.3009C40.9824 44.2865 44.2254 41.0381 48.233 41.0381C52.2407 41.0381 55.4836 44.2865 55.4836 48.3009Z" fill="white"/>
<path d="M48.1205 70.1888C55.9517 70.1888 62.9615 66.4722 66.8842 59.6491H74.1065C69.5749 69.7774 59.4637 76.2743 48.3329 76.2743C32.7696 76.2743 20.0811 63.777 20.0811 48.2867C20.0811 32.7964 32.2456 19.6892 47.908 19.6892C63.5705 19.6892 76.3723 32.1864 76.3723 48.2016V50.2585H41.4222L43.9004 44.6837H69.9714C68.4278 33.6333 58.8406 25.8882 47.8089 25.8882C37.4003 25.8882 26.8785 35.9739 26.8785 48.3009C26.8785 60.6279 36.9897 70.203 48.1205 70.203V70.1888Z" fill="white"/>
<path d="M228.606 43.2794V34.2717H237.712V43.2794H228.606Z" fill="#231F20"/>
<path d="M316.491 52.4998V53.1097H314.778V57.6065H314.084V53.1097H312.37V52.4998H316.505H316.491Z" fill="#231F20"/>
<path d="M317.114 52.4998H318.105L319.564 56.8121L321.022 52.4998H321.999V57.6065H321.348V54.5992C321.348 54.4999 321.348 54.3297 321.348 54.0885C321.348 53.8474 321.348 53.592 321.348 53.3225L319.904 57.6206H319.21L317.737 53.3225V53.4785C317.737 53.6062 317.737 53.7906 317.737 54.046C317.737 54.3013 317.737 54.4857 317.737 54.6134V57.6206H317.071V52.5139L317.114 52.4998Z" fill="#231F20"/>
</g>
<defs>
<clipPath id="clip0_1424_746">
<rect width="322" height="115" fill="white"/>
</clipPath>
</defs>
</svg>
