<?xml version="1.0" encoding="utf-8"?>
<!-- Generator: Adobe Illustrator 26.3.1, SVG Export Plug-In . SVG Version: 6.00 Build 0)  -->
<svg version="1.1" id="Layer_1" xmlns="http://www.w3.org/2000/svg" xmlns:xlink="http://www.w3.org/1999/xlink" x="0px" y="0px"
	 viewBox="0 0 754.2 95.3" style="enable-background:new 0 0 754.2 95.3;" xml:space="preserve">
<style type="text/css">
	.st0{fill:#31334C;}
	.st1{fill:#D88061;}
	.st2{fill:#AADEE8;}
	.st3{fill:#3E3C45;}
</style>
<g id="Salucro_Logo_1_">
	<g>
		<g>
			<path class="st0" d="M157.3,81.2c1.1-1.6,2.1-3.4,3.2-5.1c1.1-1.6,2.8-2.1,4.2-1c0.7,0.6,10.2,8.5,19.8,8.5
				c8.5,0,13.9-5.2,13.9-11.5c0-7.4-6.4-12.1-18.6-17.2c-12.6-5.3-22.5-11.9-22.5-26.2c0-9.6,7.4-22.8,27-22.8
				c12.4,0,21.6,6.4,22.8,7.3c1,0.6,2,2.4,0.7,4.2c-1,1.5-2.1,3.2-3.1,4.7c-1,1.6-2.6,2.4-4.3,1.2c-0.9-0.5-9.5-6.2-16.7-6.2
				c-10.4,0-13.9,6.5-13.9,11.1c0,7,5.4,11.4,15.7,15.5c14.3,5.8,26.5,12.6,26.5,27.7c0,12.8-11.5,23.3-27.5,23.3
				c-15.1,0-24.6-7.9-26.5-9.8C156.9,84.2,156.1,83.3,157.3,81.2"/>
			<path class="st0" d="M219.3,90.5l37.9-83.1c0.4-0.7,1.5-1.4,2.1-1.4h1.2c0.6,0,1.7,0.6,2.1,1.4l37.6,83.1
				c0.7,1.6-0.2,3.2-2.1,3.2h-7.8c-1.5,0-2.4-0.7-2.8-1.8l-7.7-16.9h-40.3c-2.5,5.7-5.1,11.2-7.5,16.9c-0.4,0.9-1.4,1.8-2.8,1.8
				h-7.8C219.5,93.7,218.5,92.1,219.3,90.5 M275.2,64.3L260,30.5h-0.6l-15.1,33.8H275.2z"/>
			<path class="st0" d="M314.3,9.6c0-1.2,1-2.3,2.4-2.3h8.1c1.2,0,2.4,1.1,2.4,2.3v72.6h33.5c1.4,0,2.4,1.1,2.4,2.3v6.8
				c0,1.2-1,2.3-2.4,2.3h-43.9c-1.4,0-2.4-1.1-2.4-2.3V9.6z"/>
			<path class="st0" d="M374.9,9.6c0-1.2,1.1-2.3,2.3-2.3h8.3c1.4,0,2.4,1.1,2.4,2.3v51c0,12.3,7.9,22,20.5,22
				c12.7,0,20.7-9.5,20.7-21.7V9.6c0-1.2,1-2.3,2.4-2.3h8.3c1.2,0,2.3,1.1,2.3,2.3v51.8c0,18.8-14.2,33.5-33.7,33.5
				c-19.4,0-33.5-14.7-33.5-33.5L374.9,9.6L374.9,9.6z"/>
			<path class="st0" d="M504.9,6c12.5,0,21.5,4.2,29.9,11.5c1.1,1,1.1,2.5,0.1,3.5l-5.4,5.6c-0.9,1.1-2,1.1-3.1,0
				c-5.8-5.1-13.7-8.3-21.4-8.3c-17.6,0-31,14.8-31,32.1s13.5,32,31.1,32c9,0,15.3-3.6,21.2-8.2c1.1-0.9,2.2-0.7,3-0.1l5.7,5.6
				c1,0.9,0.7,2.5-0.1,3.3c-8.4,8.2-19,12-30,12c-24.7,0-44.6-19.6-44.6-44.3S480.2,6,504.9,6"/>
			<path class="st0" d="M554.3,9.6c0-1.2,1-2.3,2.4-2.3h33.6c14.8,0,26.9,11.7,26.9,26.4c0,11.4-7.5,20.7-18.3,25l16.9,31.3
				c0.9,1.6,0,3.6-2.1,3.6H604c-1,0-1.7-0.6-2-1.1l-16.4-32.7H567v31.5c0,1.2-1.1,2.3-2.3,2.3h-8c-1.4,0-2.3-1.1-2.3-2.3L554.3,9.6
				L554.3,9.6z M589.2,49.2c8,0,15.1-6.8,15.1-15.3c0-8-7-14.7-15.1-14.7h-22v30C567.2,49.2,589.2,49.2,589.2,49.2z"/>
			<path class="st0" d="M676.1,6c24.7,0,44.4,19.9,44.4,44.6c0,24.7-19.8,44.3-44.4,44.3s-44.3-19.6-44.3-44.3
				C631.8,25.9,651.4,6,676.1,6 M676.1,82.6c17.7,0,32.1-14.3,32.1-32c0-17.5-14.4-32.2-32.1-32.2c-17.5,0-32,14.7-32,32.2
				C644.1,68.2,658.6,82.6,676.1,82.6"/>
			<path class="st0" d="M733.3,8.8c0-0.2,0.2-0.4,0.3-0.4h5c2.2,0,4,1.8,4,3.9c0,1.7-1.1,3.1-2.7,3.7l2.5,4.7c0.1,0.2,0,0.5-0.3,0.5
				h-1.4c-0.1,0-0.2-0.1-0.3-0.2l-2.5-4.9h-2.8V21c0,0.2-0.2,0.4-0.3,0.4h-1.2c-0.2,0-0.3-0.2-0.3-0.4L733.3,8.8L733.3,8.8z
				 M738.5,14.7c1.2,0,2.2-1,2.2-2.3c0-1.2-1-2.2-2.2-2.2h-3.3v4.5C735.3,14.7,738.5,14.7,738.5,14.7z"/>
			<path class="st0" d="M737.3,29.2c-8,0-14.4-6.5-14.4-14.4c0-8,6.5-14.4,14.4-14.4c7.9,0,14.4,6.5,14.4,14.4
				C751.7,22.8,745.2,29.2,737.3,29.2 M737.3,3.5c-6.2,0-11.3,5.1-11.3,11.3s5.1,11.3,11.3,11.3s11.3-5.1,11.3-11.3
				C748.6,8.6,743.5,3.5,737.3,3.5"/>
		</g>
	</g>
</g>
<g>
	<g id="Artwork_3_1_">
		<g>
			<g>
				<path class="st1" d="M63,37.6c8,5.1,16.6,12.4,16.8,20c0.3,7.6-7.8,15.5-15.7,23S48.2,95.5,41,94.9c-7.2-0.7-13.7-9.3-19.4-16.9
					c-5.7-7.6-10.4-14.1-10.5-20.7C11,50.7,15.7,44,21.4,38.9c5.7-5.1,12.3-8.6,19.3-8.9C47.7,29.7,55,32.5,63,37.6"/>
			</g>
		</g>
	</g>
	<g id="Artwork_2_1_">
		<g>
			<g>
				<path class="st2" d="M99.5,42.7c2.3,10.5,3.3,23.2-2.6,29.5c-5.9,6.3-18.6,6.2-31,5.8c-12.4-0.3-24.6-0.8-29.8-7.1
					c-5.2-6.3-3.6-18.4-2-29c1.5-10.6,2.9-19.6,8.1-25c5.3-5.4,14.3-6.9,22.9-6.5c8.6,0.5,16.7,3,22.6,8.3
					C93.6,24.1,97.2,32.2,99.5,42.7"/>
			</g>
		</g>
	</g>
	<g id="Artwork_1_1_">
		<g>
			<g>
				<path class="st3" d="M54.4,8c8,5.1,16.6,12.4,16.8,20c0.3,7.6-7.8,15.5-15.7,23S39.6,66,32.4,65.3C25.2,64.7,18.7,56,13,48.5
					C7.4,40.9,2.6,34.4,2.5,27.8C2.4,21.1,7.1,14.5,12.8,9.4c5.7-5.1,12.3-8.6,19.3-8.9C39.1,0.1,46.4,3,54.4,8"/>
			</g>
		</g>
	</g>
</g>
</svg>
